<?xml version="1.0" encoding="utf-8"?>
<!-- Generator: Adobe Illustrator 19.2.0, SVG Export Plug-In . SVG Version: 6.00 Build 0)  -->
<svg version="1.1" id="Calque_1" xmlns="http://www.w3.org/2000/svg" xmlns:xlink="http://www.w3.org/1999/xlink" x="0px" y="0px"
	 viewBox="0 0 1162.4 1000" style="enable-background:new 0 0 1162.4 1000;" xml:space="preserve">
<style type="text/css">
	.st0{fill:#4D9122;}
</style>
<path class="st0" d="M899.9,504.3c0,0-452.1-477.6-448.8-474.1L1.9,503.6v88.8h112.2l0.4,384.9H788l-0.4-384.9h112.2V504.3z
	 M732,563.3l-65.1-0.3l0.8,341.7h-434l0.5-341.4l-63.6-0.1l-0.4-68.1l281.2-299.7C449.2,193,732,494.7,732,494.7V563.3z"/>
<path class="st0" d="M1162.9,504.3c0,0-452.1-477.6-448.8-474.1L264.9,503.6v88.8h112.2l0.4,384.9h673.5l-0.4-384.9h112.2V504.3z
	 M995,563.3l-65.1-0.3l0.8,341.7h-434l0.5-341.4l-63.6-0.1l-0.4-68.1l281.2-299.7C712.2,193,995,494.7,995,494.7V563.3z"/>
</svg>
