<?xml version="1.0" encoding="utf-8"?>
<!-- Generator: Adobe Illustrator 19.2.0, SVG Export Plug-In . SVG Version: 6.00 Build 0)  -->
<svg version="1.1" id="Calque_1" xmlns="http://www.w3.org/2000/svg" xmlns:xlink="http://www.w3.org/1999/xlink" x="0px" y="0px"
	 viewBox="0 0 1000 1000" style="enable-background:new 0 0 1000 1000;" xml:space="preserve">
<style type="text/css">
	.st0{fill:#4D9122;}
</style>
<g id="Calque_2">
</g>
<path class="st0" d="M1001.5,501c0,0-504.2-502.5-500.5-498.9L0,500.4v93.5h125.2l0.5,405h751.1l-0.5-405h125.2V501z M814.2,563.1
	l-72.6-0.3l0.9,359.5h-484l0.6-359.2l-71-0.1l-0.4-71.7l313.6-315.4c-2.4-2.4,313,315.1,313,315.1V563.1z"/>
<g id="carwash_1_">
	<g>
		<g>
			<g>
				<path class="st0" d="M313.1,837.4v14.2c0,19.9,17.1,37,37,37s37-17.1,37-37v-14.2H313.1L313.1,837.4z"/>
				<path class="st0" d="M611.6,837.4v14.2c0,19.9,17.1,37,37,37c19.9,0,37-17.1,37-37v-14.2l0,0H611.6z"/>
			</g>
			<path class="st0" d="M699.7,769.2h-2.9H298.9H296c-8.5,2.9-17.1,8.5-17.1,19.9v22.8c0,11.3,8.5,19.9,19.9,19.9h397.9
				c11.3,0,19.9-8.5,19.9-19.9V789C716.8,777.6,711.1,769.2,699.7,769.2z M344.4,820.3c-11.3,0-19.9-8.5-19.9-19.9
				s8.5-19.9,19.9-19.9s19.9,8.5,19.9,19.9C364.3,808.9,355.7,820.3,344.4,820.3z M654.2,820.3c-11.3,0-19.9-8.5-19.9-19.9
				s8.5-19.9,19.9-19.9s19.9,8.5,19.9,19.9C674.1,808.9,665.6,820.3,654.2,820.3z"/>
			<path class="st0" d="M560.4,655.5c14.2,0,28.4,8.5,34.1,17.1h22.8c-8.5-22.8-31.3-37-56.9-37c-25.6,0-48.3,17.1-56.9,37h19.9
				C532,661.1,546.2,655.5,560.4,655.5z"/>
			<path class="st0" d="M659.9,681L659.9,681c0-2.9,0-5.7-2.9-5.7c-8.5-25.6-17.1-56.9-37-73.9c-17.1-14.2-39.8-8.5-59.7-8.5
				c-51.2,0-105.2,0-159.2,0c-14.2,0-25.6,2.9-34.1,14.2c-11.3,11.3-14.2,28.4-19.9,42.6c-2.9,11.3-8.5,19.9-11.3,31.3
				c-22.8,8.5-39.8,31.3-39.8,59.7c0,5.7,0,14.2,2.9,19.9h2.9h227.4h56.9h113.7h2.9c2.9-5.7,2.9-14.2,2.9-19.9
				C705.3,712.3,685.5,689.5,659.9,681z M614.4,678.2h-22.8h-71.1h-22.8H367.2l0,0c2.9-8.5,5.7-14.2,8.5-22.8
				c2.9-11.3,8.5-28.4,19.9-34.1c2.9-2.9,11.3,0,17.1,0c11.3,0,22.8,0,34.1,0c51.2,0,99.5,0,150.7,0c5.7,0,8.5,2.9,14.2,8.5
				c5.7,8.5,8.5,14.2,11.3,19.9c2.9,8.5,5.7,19.9,11.3,28.4H614.4z"/>
		</g>
	</g>
</g>
</svg>
