<?xml version="1.0" encoding="utf-8"?>
<!-- Generator: Adobe Illustrator 19.2.0, SVG Export Plug-In . SVG Version: 6.00 Build 0)  -->
<svg version="1.1" xmlns="http://www.w3.org/2000/svg" xmlns:xlink="http://www.w3.org/1999/xlink" x="0px" y="0px"
	 viewBox="0 0 1000 1000" style="enable-background:new 0 0 1000 1000;" xml:space="preserve">
<style type="text/css">
	.st0{fill:none;stroke:#141111;stroke-width:5;stroke-miterlimit:10;}
	.st1{display:none;}
	.st2{display:inline;}
	.st3{fill:none;stroke:#535353;stroke-width:2;stroke-miterlimit:10;}
	.st4{fill:none;stroke:#535353;stroke-width:2.005;stroke-miterlimit:10;}
	.st5{fill:none;stroke:#535353;stroke-width:2.0896;stroke-miterlimit:10;}
	.st6{fill:none;stroke:#535353;stroke-width:2.0648;stroke-miterlimit:10;}
	.st7{fill:none;stroke:#535353;stroke-width:2.0273;stroke-miterlimit:10;}
	.st8{fill:none;stroke:#535353;stroke-width:2.4166;stroke-miterlimit:10;}
</style>
<g id="Calque_2">
	<g>
		<path class="st0" d="M0,0c3-3,0,1003.1,0,1003.1h1000V0H820.1v109.1h88.5v363H703.1v112.5h204v339h-429v-108h-114v105h-264V583.1
			h267v79.5h111v-78l1.5-114v-93H367.1v93H95.6v-366h271.5v130.5h112.5v-129h225V0C704.6,0-0.3,0.3,0,0z"/>
	</g>
</g>
<g id="Calque_1" class="st1">
	<g class="st2">
		<rect x="0.6" class="st3" width="98.1" height="1003.8"/>
		<rect x="909.3" class="st4" width="92.1" height="1000.5"/>
		<rect x="1.3" class="st5" width="704.3" height="105.2"/>
		<rect x="-19.7" y="922.9" class="st6" width="1020.1" height="78.8"/>
		<rect x="3.1" y="472.7" class="st6" width="541.9" height="112.6"/>
		<rect x="701.3" y="472.4" class="st3" width="299.1" height="112.6"/>
		<rect x="368.1" y="377.6" class="st3" width="111.2" height="286.3"/>
		<rect x="368.1" class="st3" width="113.2" height="235"/>
		<rect x="368.1" y="816.1" class="st7" width="110.2" height="184.4"/>
		<rect x="821" class="st8" width="180.9" height="108.9"/>
	</g>
</g>
</svg>
