<?xml version="1.0" encoding="utf-8"?>
<!-- Generator: Adobe Illustrator 24.3.0, SVG Export Plug-In . SVG Version: 6.00 Build 0)  -->
<svg version="1.1" id="Calque_1" xmlns="http://www.w3.org/2000/svg" xmlns:xlink="http://www.w3.org/1999/xlink" x="0px" y="0px"
	 viewBox="0 0 24 24" style="enable-background:new 0 0 24 24;" xml:space="preserve">
<path d="M15.2,17.1c0-0.1,0-0.1,0-0.2V6.3h1.4v10.6c0,0.5-0.1,1-0.2,1.4L15.2,17.1z M11.7,20.6c-0.1,0-0.1,0-0.2,0
	c-2,0-3.7-1.6-3.7-3.7V5.3C7.8,4,8.8,3,10.1,3c1.3,0,2.3,1,2.3,2.3V15c0,0.5-0.4,0.9-0.9,0.9s-0.9-0.4-0.9-0.9V6.3H9.2v8.8
	c0,1,0.6,1.9,1.5,2.2L13,15l0.7,0.7c0-0.2,0.1-0.4,0.1-0.6V5.3c0-2-1.7-3.7-3.7-3.7S6.4,3.3,6.4,5.3v11.6c0,2.8,2.3,5.1,5.1,5.1
	c0.5,0,1-0.1,1.4-0.2L11.7,20.6z M15.9,23.4l6.8-6.8l-1.9-1.8l-4.9,4.9L13.3,17l-1.9,1.9L15.9,23.4z"/>
</svg>
