<?xml version="1.0" encoding="utf-8"?>
<!-- Generator: Adobe Illustrator 24.3.0, SVG Export Plug-In . SVG Version: 6.00 Build 0)  -->
<svg version="1.1" id="Calque_1" xmlns="http://www.w3.org/2000/svg" xmlns:xlink="http://www.w3.org/1999/xlink" x="0px" y="0px"
	 viewBox="0 0 24 24" style="enable-background:new 0 0 24 24;" xml:space="preserve">
<path d="M6,12h8v2H6V12z M4,20V4h7v5h5v9.2l0.2,0.2l1.8-1.8V8l-6-6H4C2.9,2,2,2.9,2,4v16c0,1.1,0.9,2,2,2h10.2l-2-2H4z M17.8,20
	l0.2,0.2c0-0.1,0-0.1,0-0.2v-0.2L17.8,20z M6,18h5v-2H6V18z M16.4,23.3l7-7l-2-2l-4.9,4.9l-2.7-2.7l-2,2L16.4,23.3z"/>
</svg>
